<svg data-v-97fc22ee="" data-noselect="" viewBox="0 0 800 600" width="800" height="600" preserveAspectRatio="none" version="1.1" xmlns="http://www.w3.org/2000/svg" xmlns:xlink="http://www.w3.org/1999/xlink" class="svg-canvas" style=""><defs data-v-97fc22ee=""></defs> <g data-v-97fc22ee="" mask=""><g data-v-97fc22ee="" transform="translate(120,249.26801607084) rotate(0,66.524295350322,50.731983929157) scale(1,1)" filter="" style="opacity: 1;"><g data-v-97fc22ee=""><rect fill="rgba(0,0,0,0)" width="153.04859070064" height="121.46396785831" x="-10" y="-10"></rect><svg version="1.1" id="图层_1" xmlns="http://www.w3.org/2000/svg" xmlns:xlink="http://www.w3.org/1999/xlink" x="0px" y="0px" width="133.04859070064" height="101.46396785831" viewBox="2.5 23.899999618530273 196.29998779296875 149.70001220703125" style="enable-background:new 0 0 200 200;" xml:space="preserve" class="style-removed" preserveAspectRatio="none" data-parent="shape_OYqKI1CcvR">

<path d="M2.5,173.5l15.7-55.8c1.9-6.7,8-11.3,14.9-11.3h77.7L95,162.3c-1.9,6.7-8,11.3-14.9,11.3H2.5z" fill="#0348FE" stroke-width="0"></path>
<path d="M50.3,50.5l6.2-22.1c0.7-2.6,3.2-4.5,5.9-4.5h30.7l-6.2,22.1c-0.7,2.6-3.2,4.5-5.9,4.5H50.3z" fill="#027DFF" stroke-width="0"></path>
<path d="M46.5,132.3l15.7-55.8c1.9-6.7,8-11.3,14.9-11.3h77.7L139.1,121c-1.9,6.7-8,11.3-14.9,11.3H46.5z" fill="#027DFF" stroke-width="0"></path>
<path d="M77.1,65.3c-6.9,0-13,4.6-14.9,11.3L90.5,91c0,0,7.3-25.8,7.3-25.8H77.1z" fill="#0507D9" stroke-width="0"></path>
<path d="M33.1,106.5c-6.9,0-13,4.6-14.9,11.3l28.3,14.5c0,0,7.3-25.8,7.3-25.8H33.1z" fill="#0507D9" stroke-width="0"></path>
<path d="M90.5,91l15.7-55.8c1.9-6.7,8-11.3,14.9-11.3h77.7l-15.7,55.8c-1.9,6.7-8,11.3-14.9,11.3H90.5z" fill="#0348FE" stroke-width="0"></path>
</svg></g></g></g><g data-v-97fc22ee="" mask=""><g data-v-97fc22ee="" transform="translate(47.38327908434897,53.29344817845896) rotate(0,419.66531161629104,246.66531161629104) scale(1,1)" filter="" style="opacity: 1;"><g data-v-97fc22ee=""><svg xmlns="http://www.w3.org/2000/svg" version="1.1" xmlns:xlink="http://www.w3.org/1999/xlink" width="839.3306232325822" height="493.33062323258207" viewBox="0 0 839.3306232325822 493.33062323258207" data-ligature="true" data-parent="shape_PUimOcwDy2"><g data-role="text" data-width="426.44320000000005" data-height="82" transform="translate(205.66531161629104, 205.66531161629104)"><path d="M16.25-20.29L27.49-20.29Q27.49-23.79 26.09-25.02Q24.68-26.26 20.50-26.26L20.50-26.26L5.00-26.26L5.00-33.39L20.50-33.39Q24.68-33.39 26.26-33.22Q27.84-33.05 29.48-32.57L29.48-32.57Q37.09-29.69 36.68-18.79L36.68-18.79L36.68 0L17.35 0Q12.14 0 10.15-0.31Q8.16-0.62 6.65-1.58L6.65-1.58Q2.61-4.32 2.61-9.87L2.61-9.87Q2.61-13.23 4.22-15.87Q5.83-18.51 8.50-19.47L8.50-19.47Q10.83-20.29 16.25-20.29L16.25-20.29ZM27.49-7.13L27.49-13.16L16.93-13.16L15.36-13.16Q13.78-13.16 12.86-12.34Q11.93-11.52 11.93-10.08L11.93-10.08Q11.93-8.50 13.06-7.82Q14.19-7.13 16.93-7.13L16.93-7.13L27.49-7.13Z" transform="translate(0 65) " fill="rgb(8, 12, 36)" stroke="rgb(8, 12, 36)" stroke-width="0.114" data-glyph-w="40.793200000000006" data-glyph-h="68.56000000000002" data-glyph-ascender="58.893040000000006" data-glyph-descender="-9.666960000000001" data-kerning="0"></path><path d="M4.46 0L4.46-33.39L22.14-33.39Q26.12-33.39 28.21-32.81Q30.30-32.22 32.02-30.71L32.02-30.71Q35.51-27.49 35.51-20.57L35.51-20.57L35.51 0L26.33 0L26.33-21.60Q26.33-24.06 25.23-25.16Q24.13-26.26 21.60-26.26L21.60-26.26L13.64-26.26L13.64 0L4.46 0Z" transform="translate(40.793200000000006 65) " fill="rgb(8, 12, 36)" stroke="rgb(8, 12, 36)" stroke-width="0.114" data-glyph-w="39.627680000000005" data-glyph-h="68.56000000000002" data-glyph-ascender="58.893040000000006" data-glyph-descender="-9.666960000000001" data-kerning="0"></path><path d="M2.06-6.92L21.39-26.26L2.06-26.26L2.06-33.39L33.53-33.39L33.53-26.46L14.19-7.13L33.53-7.13L33.53 0L2.06 0L2.06-6.92Z" transform="translate(80.42088000000001 65) " fill="rgb(8, 12, 36)" stroke="rgb(8, 12, 36)" stroke-width="0.114" data-glyph-w="36.062560000000005" data-glyph-h="68.56000000000002" data-glyph-ascender="58.893040000000006" data-glyph-descender="-9.666960000000001" data-kerning="0"></path><path d="M4.46-45.73L13.64-45.73L13.64-33.39L23.04-33.39Q27.22-33.39 29.58-32.74Q31.95-32.09 33.59-30.44L33.59-30.44Q36.75-27.56 36.75-20.77L36.75-20.77L36.75 0L27.56 0L27.56-18.99Q27.56-21.66 27.32-22.80Q27.08-23.93 26.33-24.75L26.33-24.75Q24.96-26.19 21.12-26.26L21.12-26.26L13.64-26.26L13.64 0L4.46 0L4.46-45.73Z" transform="translate(116.48344000000002 65) " fill="rgb(8, 12, 36)" stroke="rgb(8, 12, 36)" stroke-width="0.114" data-glyph-w="40.861760000000004" data-glyph-h="68.56000000000002" data-glyph-ascender="58.893040000000006" data-glyph-descender="-9.666960000000001" data-kerning="0"></path><path d="M17.62-7.13L26.26-7.13L26.26-33.39L35.45-33.39L35.45 0L17.35 0Q13.44 0 11.31-0.58Q9.19-1.17 7.54-2.67L7.54-2.67Q4.05-5.83 4.05-12.89L4.05-12.89L4.05-33.39L13.16-33.39L13.16-11.93Q13.16-9.67 14.36-8.40Q15.56-7.13 17.62-7.13L17.62-7.13Z" transform="translate(157.34520000000003 65) " fill="rgb(8, 12, 36)" stroke="rgb(8, 12, 36)" stroke-width="0.114" data-glyph-w="39.97048000000001" data-glyph-h="68.56000000000002" data-glyph-ascender="58.893040000000006" data-glyph-descender="-9.666960000000001" data-kerning="0"></path><path d="M19.88-33.87L19.88-33.87Q29.14-33.87 33.53-28.52L33.53-28.52Q37.57-23.65 37.57-16.25L37.57-16.25Q37.57-8.43 32.50-3.77L32.50-3.77Q27.84 0.48 19.75 0.48L19.75 0.48Q11.38 0.48 6.65-4.32L6.65-4.32Q2.26-8.64 2.26-16.93L2.26-16.93Q2.26-23.93 6.44-28.59L6.44-28.59Q11.11-33.80 19.88-33.87ZM19.95-26.88L19.95-26.88Q11.66-26.88 11.66-16.59L11.66-16.59Q11.66-12.41 13.03-10.22L13.03-10.22Q15.29-6.51 20.02-6.51L20.02-6.51Q28.18-6.51 28.18-16.73L28.18-16.73Q28.18-26.74 19.95-26.88Z" transform="translate(197.31568000000004 65) " fill="rgb(8, 12, 36)" stroke="rgb(8, 12, 36)" stroke-width="0.114" data-glyph-w="39.901920000000004" data-glyph-h="68.56000000000002" data-glyph-ascender="58.893040000000006" data-glyph-descender="-9.666960000000001" data-kerning="0"></path><path d="M8.64-49.50L18.85-49.50L15.77-44.02L28.25-44.02L28.25-7.54Q28.25-5.96 27.66-4.59Q27.08-3.22 26.05-2.19Q25.02-1.17 23.65-0.58Q22.28 0 20.77 0L20.77 0L1.37 0L1.37-44.02L5.48-44.02L8.64-49.50ZM10.90-6.79L16.59-6.79Q17.55-6.79 18.17-7.40Q18.79-8.02 18.79-8.91L18.79-8.91L18.79-16.87L10.90-16.87L10.90-6.79ZM18.79-23.58L18.79-37.23L10.90-37.23L10.90-23.58L18.79-23.58ZM43.67-49.50L42.16-45.11L61.70-45.11L61.70-44.70L61.70-38.33L61.70-7.40Q61.70-5.83 61.09-4.46Q60.47-3.09 59.44-2.06Q58.41-1.03 57.04-0.45Q55.67 0.14 54.16 0.14L54.16 0.14L35.72 0.14L38.39-5.83L50.05-5.83Q50.94-5.83 51.56-6.44Q52.17-7.06 52.17-7.95L52.17-7.95L52.17-38.33L39.90-38.33L37.57-38.33L29.96-38.33L33.73-49.50L43.67-49.50ZM50.19-17.96L40.18-17.96L33.80-31.06L43.81-31.06L50.19-17.96Z" transform="translate(237.21760000000006 65) " fill="rgb(8, 12, 36)" stroke="rgb(8, 12, 36)" stroke-width="0.114" data-glyph-w="63.07520000000001" data-glyph-h="68.56000000000002" data-glyph-ascender="58.893040000000006" data-glyph-descender="-9.666960000000001" data-kerning="0"></path><path d="M1.37-34.83L1.37-41.62L5.90-41.62L5.90-49.43L16.32-49.43L16.32-41.62L20.91-41.62L20.91-34.83L16.32-34.83L16.32 0.07L5.90 0.07L5.90-34.83L1.37-34.83ZM32.91-8.16L37.09-1.03L29.21-1.03L25.02-8.16L32.91-8.16ZM41.41-5.28L47.37-5.28Q48.33-5.28 48.95-5.90Q49.57-6.51 49.57-7.47L49.57-7.47L49.57-9.46L21.94-9.46L21.94-14.81L49.57-14.81L49.57-16.66L58.34-16.66L58.34-14.81L61.57-14.81L61.57-9.46L58.34-9.46L58.34-7.47Q58.34-5.90 57.73-4.52Q57.11-3.15 56.08-2.13Q55.05-1.10 53.65-0.51Q52.24 0.07 50.67 0.07L50.67 0.07L50.32 0.07L49.57 0.07L38.60 0.07L41.41-5.28ZM21.94-41.34L21.94-46.76L36.95-46.76L36.95-49.43L46.55-49.43L46.55-46.76L52.24-46.76L51.69-49.50L59.99-49.50L61.64-41.34L46.55-41.34L46.55-39.70L51.97-39.70L53.48-39.70Q54.99-39.70 56.36-39.11Q57.73-38.53 58.76-37.50Q59.78-36.47 60.40-35.10Q61.02-33.73 61.02-32.15L61.02-32.15L61.02-31.74L61.02-27.15L61.02-25.23L61.02-20.64L61.02-18.10L51.97-18.10L51.97-20.64L46.55-20.64L46.55-18.51L36.95-18.51L36.95-20.64L31.54-20.64L31.54-18.10L22.49-18.10L22.49-20.64L22.49-25.23L22.49-27.15L22.49-31.74L22.49-33.73L22.49-39.70L31.54-39.70L36.95-39.70L36.95-41.34L21.94-41.34ZM31.54-33.73L31.54-31.74L36.95-31.74L36.95-33.73L31.54-33.73ZM31.54-25.23L36.95-25.23L36.95-27.15L31.54-27.15L31.54-25.23ZM51.97-25.23L51.97-27.15L46.55-27.15L46.55-25.23L51.97-25.23ZM49.84-33.73L46.55-33.73L46.55-31.74L51.97-31.74Q51.90-32.57 51.32-33.15Q50.73-33.73 49.84-33.73L49.84-33.73Z" transform="translate(300.29280000000006 65) " fill="rgb(8, 12, 36)" stroke="rgb(8, 12, 36)" stroke-width="0.114" data-glyph-w="63.07520000000001" data-glyph-h="68.56000000000002" data-glyph-ascender="58.893040000000006" data-glyph-descender="-9.666960000000001" data-kerning="0"></path><path d="M53.89-30.85L53.75-30.85Q51.76-28.66 49.29-26.88Q46.83-25.09 43.95-23.72L43.95-23.72Q48.47-23.38 52.76-23.31Q57.04-23.24 60.88-23.24L60.88-23.24L60.88-17.41Q57.45-17.35 53.55-17.35Q49.64-17.35 45.42-17.48Q41.20-17.62 36.89-17.96Q32.57-18.31 28.45-18.99L28.45-18.99Q22.21-17.89 15.43-17.48Q8.64-17.07 1.44-17.00L1.44-17.00L1.44-23.24Q4.18-23.17 7.16-23.28Q10.15-23.38 13.30-23.58L13.30-23.58Q9.53-25.50 7.13-28.11L7.13-28.11L19.61-28.11Q21.73-27.36 23.96-26.77Q26.19-26.19 28.52-25.64L28.52-25.64Q33.05-26.60 36.75-27.87Q40.45-29.14 42.85-30.85L42.85-30.85L5.69-30.85L7.75-35.51L1.44-35.51L1.44-46.55L26.26-46.55L24.96-49.50L36.75-49.50L38.05-46.55L54.16-46.55Q55.74-46.55 57.11-45.97Q58.48-45.39 59.48-44.36Q60.47-43.33 61.05-41.96Q61.64-40.59 61.64-39.08L61.64-39.08L61.64-35.51L53.89-35.51L53.89-30.85ZM10.90-38.67L19.27-38.67L18.37-36.61L52.24-36.61L52.24-39.22Q52.24-40.11 51.63-40.72Q51.01-41.34 50.12-41.34L50.12-41.34L10.90-41.34L10.90-38.67ZM57.18-15.29L57.18-7.40Q57.18-5.83 56.60-4.49Q56.01-3.15 54.99-2.13Q53.96-1.10 52.59-0.51Q51.21 0.07 49.64 0.07L49.64 0.07L7.13 0.07L7.13-15.29L57.18-15.29ZM48.47-7.27L48.47-10.08L15.84-10.08L15.84-5.14L46.28-5.14Q47.24-5.14 47.85-5.76Q48.47-6.38 48.47-7.27L48.47-7.27Z" transform="translate(363.36800000000005 65) " fill="rgb(8, 12, 36)" stroke="rgb(8, 12, 36)" stroke-width="0.114" data-glyph-w="63.07520000000001" data-glyph-h="68.56000000000002" data-glyph-ascender="58.893040000000006" data-glyph-descender="-9.666960000000001" data-kerning="0"></path></g></svg></g></g></g></svg>