<svg data-v-97fc22ee="" data-noselect="" viewBox="0 0 800 600" width="800" height="600" preserveAspectRatio="none" version="1.1" xmlns="http://www.w3.org/2000/svg" xmlns:xlink="http://www.w3.org/1999/xlink" class="svg-canvas" style=""><defs data-v-97fc22ee=""></defs> <g data-v-97fc22ee="" mask=""><g data-v-97fc22ee="" transform="translate(120,218.6672712761) rotate(0,107.68647169244,71.352160950247) scale(1,1)" filter="" style="opacity: 1;"><g data-v-97fc22ee=""><rect fill="rgba(0,0,0,0)" width="235.37294338488" height="162.70432190049" x="-10" y="-10"></rect><svg version="1.1" id="图层_1" xmlns="http://www.w3.org/2000/svg" xmlns:xlink="http://www.w3.org/1999/xlink" x="0px" y="0px" viewBox="0 0 490.8 325.2" style="enable-background:new 0 0 490.8 325.2;" xml:space="preserve" width="215.37294338488" height="142.70432190049" class="style-removed" preserveAspectRatio="none" data-parent="shape_BwmPL3enRp">

<path d="M486.4,169.4c0,0-41.8-31.6-98.5-18.6c0,0-15.9-65.5-82-82.7s-131.6,22.6-143.6,72.7c0,0,40.8-64.9,109.8-57
	s98.5,50.5,107.5,86C379.7,169.9,439,158.9,486.4,169.4z" fill="#FF9D03" stroke-width="0"></path>
<path d="M490.8,162.3c0,0-11.7-52.6-80.1-61.1c0,0-31.4-99.4-146.1-101.1C154-1.6,113,103,111.9,113.6
	c0,0-96.6,4.6-110.7,97.5c-13.1,86.6,80.7,114.1,80.7,114.1s-62.2-53-31.7-117.9s92.2-56.4,92.2-56.4s18.4-97.4,124.8-104.6
	c97.5-6.6,132.1,85,132.1,85S454.5,126.6,490.8,162.3z" fill="#3D86F2" stroke-width="0"></path>
</svg></g></g></g><g data-v-97fc22ee="" mask=""><g data-v-97fc22ee="" transform="translate(-81.93827802165,43.27036524716999) rotate(0,502.09045829675,290.09045829675) scale(1,1)" filter="" style="opacity: 1;"><g data-v-97fc22ee=""><svg xmlns="http://www.w3.org/2000/svg" version="1.1" xmlns:xlink="http://www.w3.org/1999/xlink" width="1004.1809165935001" height="580.1809165935" viewBox="0 0 1004.1809165935001 580.1809165935" data-ligature="true" data-parent="shape_JGkeEJWrNP"><g data-role="text" data-width="519.7080000000001" data-height="96" transform="translate(242.09045829675, 242.09045829675)"><path d="M51.73-38.17L65.53-38.17L64.96-34.38L71.10-34.38L70.05-26.71L63.91-26.71L62.70-18.24L47.94-11.38L67.95-0.65L43.42-0.65L34.86-5.25L25.02-0.65L0.48-0.65L23.40-11.38L10.57-18.24L11.78-26.71L5.65-26.71L6.70-34.38L12.83-34.38L13.40-38.17L27.20-38.17L26.63-34.38L51.16-34.38L51.73-38.17ZM55.12-40.51L55.76-45.11L25.10-45.11L24.45-40.51L7.59-40.51L9.28-52.78L33.81-52.78L34.06-54.39L31.47-57.38L49.79-57.38L49.15-52.78L73.68-52.78L71.98-40.51L55.12-40.51ZM36.56-17.51L49.71-23.65L50.11-26.71L25.58-26.71L25.18-23.65L36.56-17.51Z" transform="translate(0 76) " fill="#07101d" stroke="#07101d" stroke-width="0.134" data-glyph-w="74.24400000000001" data-glyph-h="104.91000000000001" data-glyph-ascender="80.7" data-glyph-descender="-24.21" data-kerning="0"></path><path d="M6.46-17.75L10.17-44.55L31.47-44.55L32.93-54.96L30.26-57.38L48.98-57.38L48.50-53.91L72.31-53.91L71.34-46.97L47.45-46.97L47.13-44.55L69.64-44.55L65.93-17.75L44.47-17.75L43.98-14.61L68.27-14.61L67.30-7.75L43.01-7.75L41.88 0.56L25.82 0.56L26.95-7.75L1.86-7.75L2.82-14.61L27.92-14.61L28.41-17.75L6.46-17.75ZM52.29-24.86L52.70-28.00L22.52-28.00L22.11-24.86L52.29-24.86ZM53.58-34.70L53.99-37.69L23.89-37.69L23.48-34.70L53.58-34.70Z" transform="translate(74.24400000000001 76) " fill="#07101d" stroke="#07101d" stroke-width="0.134" data-glyph-w="74.24400000000001" data-glyph-h="104.91000000000001" data-glyph-ascender="80.7" data-glyph-descender="-24.21" data-kerning="0"></path><path d="M31.47-45.03L39.38-45.03L30.91-25.42L33.49-6.86L26.39-6.86L25.50-14.20L22.76-6.78L15.90-6.78L14.85 0.56L2.42 0.56L9.93-52.86L7.59-55.93L71.82-55.93L64.56-4.04Q64.24-2.02 62.54-0.69Q60.85 0.65 58.91 0.65L58.91 0.65L44.87 0.65L52.62-6.70L52.62-6.86L45.35-6.86L44.47-14.12L41.64-6.78L33.49-6.78L42.04-25.99L39.46-45.03L47.13-45.03L47.77-37.12L50.36-45.03L57.78-45.03L50.03-25.58L52.70-7.26L58.43-48.26L21.71-48.26L21.22-45.03L28.49-45.03L28.89-37.12L31.47-45.03ZM21.14-44.55L16.30-10.01L23.24-25.99L21.14-44.55Z" transform="translate(148.48800000000003 76) " fill="#07101d" stroke="#07101d" stroke-width="0.134" data-glyph-w="74.24400000000001" data-glyph-h="104.91000000000001" data-glyph-ascender="80.7" data-glyph-descender="-24.21" data-kerning="0"></path><path d="M71.34-25.26L57.94-25.26L50.68-30.50L42.29-25.34L28.41-25.34L29.37-32.12L37.28-32.12L43.42-35.91L39.14-39.06L30.42-39.06L41.00-55.12L39.14-57.22L52.94-57.22L50.52-53.50L73.60-53.50L72.23-43.82L59.40-35.91L64.56-32.20L72.31-32.20L71.34-25.26ZM29.78-23.73L69.48-23.73L66.25-0.81L26.55-0.81L29.78-23.73ZM5.00-31.15L6.05-38.82L16.54-55.20L14.77-57.22L31.63-57.22L19.85-38.82L29.05-38.82L17.27-20.42L26.23-20.42L25.18-12.75L2.42-12.75L3.47-20.42L10.33-31.15L5.00-31.15ZM24.77-9.68L23.73-2.02L0.56-0.65L1.61-8.31L24.77-9.68ZM39.87-8.39L54.96-8.39L56.09-16.14L41.00-16.14L39.87-8.39ZM60.77-46.73L46.08-46.73L45.60-46.00L52.05-41.32L60.77-46.73Z" transform="translate(222.73200000000003 76) " fill="#07101d" stroke="#07101d" stroke-width="0.134" data-glyph-w="74.24400000000001" data-glyph-h="104.91000000000001" data-glyph-ascender="80.7" data-glyph-descender="-24.21" data-kerning="0"></path><path d="M1.53-9.85L27.60-9.85L32.76-46.64L8.23-46.64L9.28-54.31L73.68-54.31L72.63-46.64L48.10-46.64L42.93-9.85L69.00-9.85L67.95-2.18L0.48-2.18L1.53-9.85Z" transform="translate(296.97600000000006 76) " fill="#07101d" stroke="#07101d" stroke-width="0.134" data-glyph-w="74.24400000000001" data-glyph-h="104.91000000000001" data-glyph-ascender="80.7" data-glyph-descender="-24.21" data-kerning="0"></path><path d="M23.89-34.38L29.62-55.36L27.92-57.38L42.45-57.38L40.75-51.24L72.23-51.24L71.18-43.58L54.23-43.58L53.02-35.10L66.90-35.10L65.85-27.52L51.97-27.52L50.76-19.05L66.17-19.05L65.12-11.38L49.71-11.38L48.02 0.73L33.41 0.73L39.62-43.58L38.66-43.58L36.15-34.38L23.89-34.38ZM24.86-57.38L23.56-48.18L16.62 0.73L2.02 0.73L8.55-45.19L3.79-44.30L5.08-53.50L24.86-57.38Z" transform="translate(371.2200000000001 76) " fill="#07101d" stroke="#07101d" stroke-width="0.134" data-glyph-w="74.24400000000001" data-glyph-h="104.91000000000001" data-glyph-ascender="80.7" data-glyph-descender="-24.21" data-kerning="0"></path><path d="M49.47-57.30L48.82-52.86L72.87-52.86L71.18-40.59L66.58-40.59L65.77-34.86L35.10-34.86L27.36-29.05L49.63-29.05L48.34-33.25L61.41-33.25L65.37-20.66L52.37-20.66L51.97-21.95L43.90-21.95L43.34-17.67L66.42-17.67L65.53-11.22L42.37-11.22L41.88-7.42L66.42-7.42L65.53-1.13L1.29-1.13L2.18-7.42L25.99-7.42L26.47-11.22L5.73-11.22L6.62-17.67L27.44-17.67L28.00-21.95L9.20-21.95L10.25-29.13L18.08-34.86L10.65-34.86L11.46-40.59L6.94-40.59L8.63-52.86L32.60-52.86L32.84-54.31L30.26-57.30L49.47-57.30ZM21.30-45.19L20.74-41.56L57.54-41.56L58.10-45.19L21.30-45.19Z" transform="translate(445.4640000000001 76) " fill="#07101d" stroke="#07101d" stroke-width="0.134" data-glyph-w="74.24400000000001" data-glyph-h="104.91000000000001" data-glyph-ascender="80.7" data-glyph-descender="-24.21" data-kerning="0"></path></g></svg></g></g></g></svg>